<svg width="56" height="53" viewBox="0 0 56 53" fill="none" xmlns="http://www.w3.org/2000/svg">
<g id="Group 8">
<path id="Vector" d="M44.6623 0H11.3378C8.33183 0.00316571 5.44998 1.12779 3.32447 3.12713C1.19896 5.12648 0.00336547 7.83727 0 10.6648V42.0112C0.00336547 44.8387 1.19896 47.5495 3.32447 49.5488C5.44998 51.5482 8.33183 52.6728 11.3378 52.676H44.6623C47.6682 52.6728 50.5501 51.5482 52.6756 49.5488C54.8011 47.5495 55.9967 44.8387 56 42.0112V10.6638C55.9964 7.83644 54.8007 5.12591 52.6752 3.12678C50.5497 1.12765 47.668 0.00316521 44.6623 0ZM51.7616 42.0102C51.7599 43.7808 51.0114 45.4785 49.6804 46.7305C48.3494 47.9825 46.5446 48.6866 44.6623 48.6882H11.3378C9.45541 48.6866 7.65064 47.9825 6.31962 46.7305C4.9886 45.4785 4.2401 43.7808 4.23841 42.0102V10.6638C4.2401 8.89316 4.9886 7.19552 6.31962 5.9435C7.65064 4.69149 9.45541 3.98742 11.3378 3.98583H44.6623C46.5446 3.98742 48.3494 4.69149 49.6804 5.9435C51.0114 7.19552 51.7599 8.89316 51.7616 10.6638V42.0102Z" fill="white"/>
<path id="Vector_2" d="M27.2583 15.6574C27.1052 15.2982 26.8442 14.9887 26.5072 14.7666C26.1703 14.5446 25.7719 14.4196 25.3607 14.4069C24.9495 14.3942 24.5432 14.4944 24.1915 14.6952C23.8398 14.896 23.5579 15.1888 23.3801 15.5378L17.0098 28.0544C16.8658 28.2425 16.7582 28.453 16.6919 28.6763L12.8476 36.2223C12.7274 36.4585 12.6578 36.7145 12.6428 36.976C12.6278 37.2374 12.6677 37.499 12.7602 37.746C12.8527 37.9929 12.9959 38.2203 13.1819 38.4151C13.3678 38.61 13.5926 38.7685 13.8437 38.8815C14.0947 38.9946 14.3669 39.0601 14.6449 39.0742C14.9228 39.0883 15.201 39.0508 15.4635 38.9638C15.726 38.8768 15.9677 38.742 16.1748 38.5672C16.382 38.3923 16.5505 38.1808 16.6707 37.9446L20.1017 31.2059H29.3202L32.1441 37.826C32.3533 38.3168 32.7612 38.7093 33.2781 38.9171C33.7949 39.125 34.3784 39.1312 34.9001 38.9344C35.4218 38.7376 35.8391 38.3539 36.06 37.8677C36.281 37.3815 36.2876 36.8327 36.0784 36.3419L27.2583 15.6574ZM22.1308 27.2191L25.1232 21.3536L27.6259 27.2221L22.1308 27.2191ZM41.2387 13.5972C40.6766 13.5972 40.1376 13.8073 39.7402 14.1811C39.3427 14.5549 39.1195 15.062 39.1195 15.5906V16.6571C39.1195 17.1858 39.3427 17.6928 39.7402 18.0667C40.1376 18.4405 40.6766 18.6505 41.2387 18.6505C41.8007 18.6505 42.3397 18.4405 42.7372 18.0667C43.1346 17.6928 43.3579 17.1858 43.3579 16.6571V15.5906C43.3579 15.062 43.1346 14.5549 42.7372 14.1811C42.3397 13.8073 41.8007 13.5972 41.2387 13.5972ZM41.2387 20.316C40.6766 20.316 40.1376 20.526 39.7402 20.8999C39.3427 21.2737 39.1195 21.7807 39.1195 22.3094V37.0835C39.1195 37.6122 39.3427 38.1192 39.7402 38.493C40.1376 38.8669 40.6766 39.0769 41.2387 39.0769C41.8007 39.0769 42.3397 38.8669 42.7372 38.493C43.1346 38.1192 43.3579 37.6122 43.3579 37.0835V22.3094C43.3579 21.7807 43.1346 21.2737 42.7372 20.8999C42.3397 20.526 41.8007 20.316 41.2387 20.316Z" fill="white"/>
</g>
</svg>
