<svg width="21" height="21" viewBox="0 0 21 21" fill="none" xmlns="http://www.w3.org/2000/svg">
<path id="Vector" d="M20.4828 9.25262L11.74 0.498981C11.5737 0.339594 11.3776 0.214653 11.163 0.131328C10.7373 -0.0437761 10.2598 -0.0437761 9.83406 0.131328C9.61942 0.214653 9.42333 0.339594 9.25703 0.498981L0.514237 9.25262C0.351204 9.41585 0.221879 9.60964 0.133646 9.82292C0.0454134 10.0362 0 10.2648 0 10.4956C0 10.9619 0.184977 11.409 0.514237 11.7387C0.843497 12.0683 1.29007 12.2535 1.75571 12.2535C2.22136 12.2535 2.66793 12.0683 2.99719 11.7387L8.74995 5.96125V19.2493C8.74995 19.7136 8.93417 20.1589 9.26209 20.4872C9.59001 20.8155 10.0348 21 10.4985 21C10.9623 21 11.407 20.8155 11.7349 20.4872C12.0628 20.1589 12.2471 19.7136 12.2471 19.2493V5.96125L17.9998 11.7387C18.1624 11.9027 18.3558 12.033 18.5688 12.1219C18.7819 12.2108 19.0105 12.2565 19.2413 12.2565C19.4721 12.2565 19.7007 12.2108 19.9138 12.1219C20.1268 12.033 20.3202 11.9027 20.4828 11.7387C20.6467 11.5759 20.7768 11.3823 20.8655 11.1689C20.9543 10.9556 21 10.7268 21 10.4956C21 10.2645 20.9543 10.0357 20.8655 9.82235C20.7768 9.609 20.6467 9.41537 20.4828 9.25262Z" fill="white"/>
</svg>
