<svg width="38" height="23" viewBox="0 0 38 23" fill="none" xmlns="http://www.w3.org/2000/svg">
<path id="Vector" d="M17.4363 2.392C18.1536 3.3465 18.5123 4.485 18.5123 5.8167C18.5123 7.1852 18.1536 8.2892 17.4268 9.1218C17.0183 9.5841 16.4221 10.0119 15.6335 10.396C16.8306 10.8146 17.7332 11.4747 18.3484 12.3763C18.9564 13.2779 19.2628 14.375 19.2628 15.663C19.2628 16.9924 18.9137 18.1861 18.2154 19.2395C17.7736 19.9364 17.2178 20.5275 16.5527 21.0036C15.7667 21.567 14.86 21.9522 13.8996 22.1306C12.8783 22.333 11.7738 22.4319 10.5815 22.4319H0V0H11.3487C14.2132 0.0414 16.2392 0.8372 17.4363 2.392ZM4.6815 3.8962V8.8458H10.3915C11.4081 8.8458 12.237 8.6595 12.8759 8.2892C13.5101 7.9189 13.8307 7.2611 13.8307 6.3204C13.8307 5.2716 13.4103 4.5839 12.5695 4.2458C11.8427 4.0135 10.9164 3.8962 9.79292 3.8962H4.6815ZM4.6815 12.558V18.5403H10.3843C11.4033 18.5403 12.199 18.4092 12.7643 18.1447C13.7951 17.6525 14.3082 16.7233 14.3082 15.3433C14.3082 14.1726 13.8117 13.3722 12.8142 12.9352C12.2536 12.6937 11.4698 12.5649 10.4627 12.558H4.6815ZM33.4593 6.1824C34.6731 6.6999 35.6706 7.5187 36.4568 8.6365C37.1741 9.6232 37.6349 10.7663 37.8439 12.0658C37.9675 12.8248 38.015 13.9265 37.996 15.3594H25.3433C25.4193 17.0223 26.0179 18.1907 27.1627 18.8577C27.8563 19.274 28.6876 19.4833 29.6685 19.4833C30.6994 19.4833 31.5402 19.2303 32.1862 18.7243C32.5425 18.4483 32.8537 18.0688 33.1221 17.5835H37.7584C37.6349 18.5656 37.072 19.5661 36.0768 20.5827C34.521 22.1927 32.343 23 29.5426 23C27.2292 23 25.1913 22.3215 23.4265 20.9599C21.6546 19.6006 20.7734 17.3857 20.7734 14.3198C20.7734 11.4448 21.5715 9.2391 23.1653 7.705C24.7638 6.1755 26.8302 5.405 29.374 5.405C30.8894 5.4027 32.2504 5.6626 33.4593 6.1824ZM26.6687 9.9291C26.0274 10.5616 25.6236 11.4172 25.4573 12.4959H33.2836C33.2004 11.3436 32.7943 10.4719 32.0746 9.8716C31.3454 9.2759 30.45 8.9792 29.3788 8.9792C28.2173 8.9815 27.31 9.2989 26.6687 9.9291ZM24.284 3.8387H34.3477V1.0465H24.284V3.8387Z" fill="black"/>
</svg>
