<svg width="55" height="50" viewBox="0 0 55 50" fill="none" xmlns="http://www.w3.org/2000/svg">
<path id="Vector" d="M40.3951 24.1187C41.4824 24.1311 42.5614 23.9431 43.5684 23.5659C44.5754 23.1887 45.49 22.6299 46.2583 21.9225L53.9402 14.8596C54.4458 14.392 54.7296 13.7595 54.7296 13.1002C54.7296 12.4408 54.4458 11.8083 53.9402 11.3407C53.6879 11.1068 53.3876 10.9211 53.0569 10.7944C52.7261 10.6677 52.3713 10.6025 52.013 10.6025C51.6546 10.6025 51.2998 10.6677 50.969 10.7944C50.6383 10.9211 50.338 11.1068 50.0857 11.3407L42.3224 18.3786C42.07 18.6125 41.7698 18.7982 41.439 18.9249C41.1082 19.0516 40.7534 19.1168 40.3951 19.1168C40.0368 19.1168 39.682 19.0516 39.3512 18.9249C39.0204 18.7982 38.7202 18.6125 38.4678 18.3786L48.077 9.56874C48.3301 9.33605 48.5309 9.0598 48.6678 8.75577C48.8048 8.45174 48.8753 8.12588 48.8753 7.7968C48.8753 7.46772 48.8048 7.14186 48.6678 6.83783C48.5309 6.53379 48.3301 6.25755 48.077 6.02485C47.8239 5.79215 47.5234 5.60757 47.1928 5.48164C46.8621 5.3557 46.5077 5.29088 46.1497 5.29088C45.7918 5.29088 45.4374 5.3557 45.1067 5.48164C44.776 5.60757 44.4756 5.79215 44.2225 6.02485L34.6405 14.8596C34.1349 14.392 33.8511 13.7595 33.8511 13.1002C33.8511 12.4408 34.1349 11.8083 34.6405 11.3407L42.3224 4.27786C42.5755 4.04516 42.7762 3.76891 42.9132 3.46488C43.0502 3.16085 43.1207 2.83499 43.1207 2.50591C43.1207 2.17683 43.0502 1.85097 42.9132 1.54694C42.7762 1.24291 42.5755 0.96666 42.3224 0.733965C42.0693 0.501269 41.7688 0.316685 41.4381 0.190751C41.1074 0.0648175 40.753 -6.48697e-09 40.3951 0C40.0372 6.48697e-09 39.6828 0.0648175 39.3521 0.190751C39.0214 0.316685 38.7209 0.501269 38.4678 0.733965L30.7859 7.7968C29.261 9.20063 28.4044 11.1036 28.4044 13.0877C28.4044 15.0718 29.261 16.9747 30.7859 18.3786L27.2572 21.598L4.80863 0.883707L4.53718 0.733965C4.39842 0.622656 4.24302 0.530207 4.07573 0.459438L3.58713 0.284739L3.26139 0.0850827H3.07138H2.52849C2.36665 0.06129 2.20173 0.06129 2.03989 0.0850827C1.87556 0.140074 1.72027 0.215658 1.57843 0.309696L1.14412 0.559266H0.954107L0.791239 0.808836C0.676353 0.940606 0.57631 1.08276 0.49265 1.2331C0.413152 1.38529 0.34953 1.54406 0.302638 1.70729C0.302638 1.70729 0.302638 1.88199 0.302638 1.98181C-0.356064 6.20307 0.063902 10.5074 1.52924 14.5534C2.99457 18.5995 5.46498 22.2761 8.74459 25.2917L15.9107 31.8553L1.22555 45.3321C0.971131 45.5641 0.769191 45.8402 0.631382 46.1443C0.493573 46.4484 0.422622 46.7746 0.422622 47.1041C0.422622 47.4335 0.493573 47.7597 0.631382 48.0639C0.769191 48.368 0.971131 48.644 1.22555 48.876C1.47919 49.1073 1.78 49.2903 2.11072 49.4145C2.44144 49.5387 2.79557 49.6017 3.15281 49.5998C3.51005 49.6017 3.86419 49.5387 4.19491 49.4145C4.52563 49.2903 4.82644 49.1073 5.08007 48.876L21.5568 33.9517L29.2387 26.8889L34.6676 21.8975C36.1822 23.3051 38.2416 24.1037 40.3951 24.1187ZM19.6295 28.6609L12.4905 22.0722C8.57753 18.4253 6.12744 13.6648 5.54153 8.57046L23.4841 25.0421L19.6295 28.6609ZM36.5677 30.0834C36.0566 29.6101 35.3619 29.343 34.6365 29.3406C33.9111 29.3383 33.2144 29.601 32.6996 30.0709C32.1849 30.5409 31.8943 31.1796 31.8917 31.8465C31.8892 32.5135 32.1749 33.154 32.6861 33.6273L49.7871 49.3502C50.3056 49.784 50.9865 50.0165 51.6872 49.9991C52.0445 50.001 52.3986 49.938 52.7293 49.8138C53.06 49.6896 53.3608 49.5066 53.6145 49.2753C53.8689 49.0433 54.0708 48.7673 54.2087 48.4632C54.3465 48.1591 54.4174 47.8329 54.4174 47.5034C54.4174 47.1739 54.3465 46.8477 54.2087 46.5436C54.0708 46.2395 53.8689 45.9635 53.6145 45.7314L36.5677 30.0834Z" fill="#344128"/>
</svg>
