<svg width="30" height="29" viewBox="0 0 30 29" fill="none" xmlns="http://www.w3.org/2000/svg">
<path id="Vector" d="M10.0012 14.5C10.0012 11.8307 12.2392 9.66628 15.0006 9.66628C17.762 9.66628 20.0012 11.8307 20.0012 14.5C20.0012 17.1693 17.762 19.3337 15.0006 19.3337C12.2392 19.3337 10.0012 17.1693 10.0012 14.5ZM7.29795 14.5C7.29795 18.6122 10.7464 21.9456 15.0006 21.9456C19.2548 21.9456 22.7033 18.6122 22.7033 14.5C22.7033 10.3878 19.2548 7.0544 15.0006 7.0544C10.7464 7.0544 7.29795 10.3878 7.29795 14.5ZM21.208 6.75925C21.208 7.71967 22.0138 8.49972 23.0086 8.49972C24.0022 8.49972 24.8092 7.71967 24.8092 6.75925C24.8092 5.79883 24.0034 5.01995 23.0086 5.01995C22.0138 5.01995 21.208 5.79883 21.208 6.75925ZM8.93978 26.3026C7.47728 26.2382 6.68242 26.0028 6.15413 25.8037C5.45377 25.5401 4.95456 25.2263 4.42869 24.7191C3.90404 24.212 3.57809 23.7294 3.30668 23.0524C3.10069 22.5418 2.85714 21.7734 2.7905 20.3597C2.7178 18.8313 2.70326 18.3721 2.70326 14.5C2.70326 10.6279 2.71901 10.1699 2.7905 8.64027C2.85714 7.22658 3.1019 6.45941 3.30668 5.94758C3.5793 5.2706 3.90404 4.78804 4.42869 4.27973C4.95335 3.77258 5.45256 3.45751 6.15413 3.19515C6.68242 2.99604 7.47728 2.76062 8.93978 2.6962C10.521 2.62593 10.996 2.61187 15.0006 2.61187C19.0064 2.61187 19.4802 2.6271 21.0626 2.6962C22.5251 2.76062 23.3188 2.99721 23.8483 3.19515C24.5486 3.45751 25.0479 3.77258 25.5737 4.27973C26.0984 4.78687 26.4231 5.2706 26.6957 5.94758C26.9017 6.45824 27.1453 7.22658 27.2119 8.64027C27.2846 10.1699 27.2992 10.6279 27.2992 14.5C27.2992 18.371 27.2846 18.8301 27.2119 20.3597C27.1453 21.7734 26.9005 22.5418 26.6957 23.0524C26.4231 23.7294 26.0984 24.212 25.5737 24.7191C25.0491 25.2263 24.5486 25.5401 23.8483 25.8037C23.32 26.0028 22.5251 26.2382 21.0626 26.3026C19.4814 26.3729 19.0064 26.387 15.0006 26.387C10.996 26.387 10.521 26.3729 8.93978 26.3026ZM8.81619 0.0878433C7.21919 0.158118 6.12868 0.402908 5.17509 0.761309C4.18878 1.13142 3.35272 1.62803 2.51787 2.43385C1.68424 3.23966 1.17048 4.04782 0.787592 5.00238C0.416818 5.92415 0.163577 6.97827 0.0908761 8.52197C0.0169635 10.068 0 10.5623 0 14.5C0 18.4377 0.0169635 18.932 0.0908761 20.478C0.163577 22.0217 0.416818 23.0758 0.787592 23.9976C1.17048 24.951 1.68302 25.7603 2.51787 26.5662C3.35151 27.372 4.18757 27.8674 5.17509 28.2387C6.12989 28.5971 7.21919 28.8419 8.81619 28.9122C10.4168 28.9824 10.9269 29 15.0006 29C19.0755 29 19.5856 28.9836 21.185 28.9122C22.782 28.8419 23.8725 28.5971 24.8261 28.2387C25.8124 27.8674 26.6485 27.372 27.4833 26.5662C28.317 25.7603 28.8295 24.951 29.2136 23.9976C29.5844 23.0758 29.8388 22.0217 29.9103 20.478C29.983 18.9308 30 18.4377 30 14.5C30 10.5623 29.983 10.068 29.9103 8.52197C29.8376 6.97827 29.5844 5.92415 29.2136 5.00238C28.8295 4.04899 28.317 3.24083 27.4833 2.43385C26.6497 1.62803 25.8124 1.13142 24.8273 0.761309C23.8725 0.402908 22.782 0.156947 21.1862 0.0878433C19.5868 0.0175687 19.0755 0 15.0018 0C10.9269 0 10.4168 0.0163974 8.81619 0.0878433Z" fill="black"/>
</svg>
