<svg width="20" height="24" viewBox="0 0 20 24" fill="none" xmlns="http://www.w3.org/2000/svg">
<g id="Group">
<path id="Vector" fill-rule="evenodd" clip-rule="evenodd" d="M19 9.80133C19 16.6468 10 22.5144 10 22.5144C10 22.5144 1 16.6468 1 9.80133C1 7.46707 1.94821 5.22842 3.63604 3.57785C5.32387 1.92728 7.61305 1 10 1C12.3869 1 14.6761 1.92728 16.364 3.57785C18.0518 5.22842 19 7.46707 19 9.80133Z" stroke="white" stroke-width="2" stroke-linecap="round" stroke-linejoin="round"/>
<path id="Vector_2" d="M10 12.7351C11.6569 12.7351 13 11.4216 13 9.80133C13 8.18105 11.6569 6.86755 10 6.86755C8.34315 6.86755 7 8.18105 7 9.80133C7 11.4216 8.34315 12.7351 10 12.7351Z" stroke="white" stroke-width="2" stroke-linecap="round" stroke-linejoin="round"/>
</g>
</svg>
