<svg width="61" height="50" viewBox="0 0 61 50" fill="none" xmlns="http://www.w3.org/2000/svg">
<path id="Vector" d="M54.4415 28.2778V22.2222C54.4415 16.3285 51.8923 10.6762 47.3546 6.50874C42.8169 2.34126 36.6625 0 30.2453 0C23.828 0 17.6736 2.34126 13.136 6.50874C8.5983 10.6762 6.04906 16.3285 6.04906 22.2222V28.2778C4.28409 28.8509 2.75534 29.9113 1.67238 31.3137C0.589416 32.7161 0.0052612 34.3918 0 36.1111V41.6667C0 43.8768 0.955965 45.9964 2.65759 47.5592C4.35922 49.122 6.66712 50 9.07358 50H18.1472C18.9493 50 19.7186 49.7073 20.2858 49.1864C20.853 48.6655 21.1717 47.9589 21.1717 47.2222V30.5556C21.1717 29.8188 20.853 29.1123 20.2858 28.5914C19.7186 28.0704 18.9493 27.7778 18.1472 27.7778H12.0981V22.2222C12.0981 17.8019 14.01 13.5627 17.4133 10.4371C20.8166 7.3115 25.4324 5.55556 30.2453 5.55556C35.0582 5.55556 39.674 7.3115 43.0773 10.4371C46.4805 13.5627 48.3925 17.8019 48.3925 22.2222V27.7778H42.3434C41.5412 27.7778 40.7719 28.0704 40.2047 28.5914C39.6375 29.1123 39.3189 29.8188 39.3189 30.5556V47.2222C39.3189 47.9589 39.6375 48.6655 40.2047 49.1864C40.7719 49.7073 41.5412 50 42.3434 50H51.417C53.8234 50 56.1314 49.122 57.833 47.5592C59.5346 45.9964 60.4906 43.8768 60.4906 41.6667V36.1111C60.4853 34.3918 59.9012 32.7161 58.8182 31.3137C57.7352 29.9113 56.2065 28.8509 54.4415 28.2778ZM15.1226 33.3333V44.4444H9.07358C8.27143 44.4444 7.50213 44.1518 6.93492 43.6309C6.36771 43.1099 6.04906 42.4034 6.04906 41.6667V36.1111C6.04906 35.3744 6.36771 34.6679 6.93492 34.1469C7.50213 33.626 8.27143 33.3333 9.07358 33.3333H15.1226ZM54.4415 41.6667C54.4415 42.4034 54.1229 43.1099 53.5556 43.6309C52.9884 44.1518 52.2191 44.4444 51.417 44.4444H45.3679V33.3333H51.417C52.2191 33.3333 52.9884 33.626 53.5556 34.1469C54.1229 34.6679 54.4415 35.3744 54.4415 36.1111V41.6667Z" fill="#344128"/>
</svg>
