<svg width="45" height="50" viewBox="0 0 45 50" fill="none" xmlns="http://www.w3.org/2000/svg">
<path id="Vector" d="M38.6468 0H11.0419C8.11343 0 5.30487 1.05357 3.23411 2.92893C1.16334 4.8043 0 7.34784 0 10V40C0 42.6522 1.16334 45.1957 3.23411 47.0711C5.30487 48.9464 8.11343 50 11.0419 50H38.6468C40.111 50 41.5153 49.4732 42.5507 48.5355C43.586 47.5979 44.1677 46.3261 44.1677 45V5C44.1677 3.67392 43.586 2.40215 42.5507 1.46447C41.5153 0.526784 40.111 0 38.6468 0ZM5.52096 10C5.52096 8.67392 6.10264 7.40215 7.13802 6.46447C8.1734 5.52678 9.57768 5 11.0419 5H38.6468V30H11.0419C9.0959 30.0074 7.18828 30.4911 5.52096 31.4V10ZM11.0419 45C9.57768 45 8.1734 44.4732 7.13802 43.5355C6.10264 42.5979 5.52096 41.3261 5.52096 40C5.52096 38.6739 6.10264 37.4021 7.13802 36.4645C8.1734 35.5268 9.57768 35 11.0419 35H38.6468V45H11.0419ZM16.5629 15H27.6048C28.3369 15 29.0391 14.7366 29.5568 14.2678C30.0745 13.7989 30.3653 13.163 30.3653 12.5C30.3653 11.837 30.0745 11.2011 29.5568 10.7322C29.0391 10.2634 28.3369 10 27.6048 10H16.5629C15.8308 10 15.1286 10.2634 14.6109 10.7322C14.0932 11.2011 13.8024 11.837 13.8024 12.5C13.8024 13.163 14.0932 13.7989 14.6109 14.2678C15.1286 14.7366 15.8308 15 16.5629 15Z" fill="#344128"/>
</svg>
