<svg width="25" height="23" viewBox="0 0 25 23" fill="none" xmlns="http://www.w3.org/2000/svg">
<path id="Vector" d="M23.9564 15.4393L21.7242 13.4382C21.0587 12.8465 20.1606 12.5129 19.2233 12.5093C18.286 12.5057 17.3847 12.8325 16.7137 13.4191C16.3556 13.7419 15.8833 13.9427 15.3779 13.9871C14.8725 14.0314 14.3657 13.9164 13.9446 13.662C12.2828 12.6677 10.8552 11.3904 9.74288 9.90264C9.46401 9.52099 9.3404 9.06484 9.39289 8.61104C9.44538 8.15723 9.67076 7.73352 10.031 7.41128C10.6795 6.8092 11.0393 6.00348 11.0334 5.16658C11.0276 4.32968 10.6565 3.5281 9.99959 2.93338L7.7673 0.932291C7.09898 0.335245 6.19393 0 5.2504 0C4.30688 0 3.40182 0.335245 2.7335 0.932291L2.09121 1.50897C-1.25722 4.51061 -1.00659 10.8213 5.96017 17.0629C10.1609 20.8295 14.3891 22.4067 17.8177 22.4067C18.8269 22.4369 19.8328 22.2866 20.7766 21.9648C21.7205 21.6429 22.5834 21.1559 23.3152 20.5321L23.9585 19.9554C24.6257 19.356 25.0003 18.5437 24.9999 17.697C24.9995 16.8502 24.6242 16.0382 23.9564 15.4393ZM22.5217 18.6692L21.8784 19.2459C19.2402 21.6108 13.417 21.1788 7.39289 15.7777C1.36876 10.3765 0.885776 5.15277 3.52393 2.78785L4.16216 2.21208C4.44953 1.95541 4.83865 1.81129 5.24431 1.81129C5.64997 1.81129 6.0391 1.95541 6.32646 2.21208L8.55875 4.21317C8.84089 4.46736 9.00104 4.81033 9.00502 5.1689C9.00901 5.52746 8.8565 5.87323 8.58006 6.1324C7.89442 6.75095 7.46673 7.56193 7.36864 8.42947C7.27055 9.29702 7.50802 10.1684 8.04127 10.8977C9.30509 12.5931 10.9303 14.0478 12.8234 15.1782C13.6345 15.6563 14.6041 15.8705 15.5701 15.7849C16.5362 15.6993 17.4402 15.3192 18.1312 14.708C18.4198 14.4572 18.8066 14.318 19.2084 14.3202C19.6103 14.3224 19.9952 14.4659 20.2803 14.7198L22.5126 16.7209C22.6564 16.848 22.7708 16.9994 22.8492 17.1663C22.9276 17.3331 22.9684 17.5123 22.9692 17.6934C22.9701 17.8744 22.931 18.0539 22.8542 18.2214C22.7774 18.3888 22.6644 18.5411 22.5217 18.6692Z" fill="white"/>
</svg>
