<svg width="56" height="53" viewBox="0 0 56 53" fill="none" xmlns="http://www.w3.org/2000/svg">
<g id="Group 9">
<path id="Vector" d="M44.6623 0H11.3378C8.33183 0.00316571 5.44998 1.12779 3.32447 3.12713C1.19896 5.12648 0.00336547 7.83727 0 10.6648V42.0112C0.00336547 44.8387 1.19896 47.5495 3.32447 49.5488C5.44998 51.5482 8.33183 52.6728 11.3378 52.676H44.6623C47.6682 52.6728 50.5501 51.5482 52.6756 49.5488C54.8011 47.5495 55.9967 44.8387 56 42.0112V10.6638C55.9964 7.83644 54.8007 5.12591 52.6752 3.12678C50.5497 1.12765 47.668 0.00316521 44.6623 0ZM51.7616 42.0102C51.7599 43.7808 51.0114 45.4785 49.6804 46.7305C48.3494 47.9825 46.5446 48.6866 44.6623 48.6882H11.3378C9.45541 48.6866 7.65064 47.9825 6.31962 46.7305C4.9886 45.4785 4.2401 43.7808 4.23841 42.0102V10.6638C4.2401 8.89316 4.9886 7.19552 6.31962 5.9435C7.65064 4.69149 9.45541 3.98742 11.3378 3.98583H44.6623C46.5446 3.98742 48.3494 4.69149 49.6804 5.9435C51.0114 7.19552 51.7599 8.89316 51.7616 10.6638V42.0102Z" fill="white"/>
<path id="Vector_2" d="M31.3908 20.9281C31.3894 18.9807 30.5669 17.1133 29.1037 15.7356C27.6405 14.3579 25.6561 13.5824 23.5858 13.5792H17.9837C17.4216 13.5792 16.8826 13.7893 16.4852 14.1631C16.0877 14.537 15.8645 15.044 15.8645 15.5727V37.102C15.8645 37.6307 16.0877 38.1377 16.4852 38.5116C16.8826 38.8854 17.4216 39.0954 17.9837 39.0954C18.5457 39.0954 19.0847 38.8854 19.4822 38.5116C19.8796 38.1377 20.1029 37.6307 20.1029 37.102V28.3089L23.6706 28.273C25.7261 28.2509 27.6894 27.4674 29.1347 26.0924C30.58 24.7174 31.3907 22.8618 31.3908 20.9281ZM23.6218 24.2861L20.0997 24.322V17.5661H23.5826C24.5294 17.5613 25.4394 17.9103 26.1126 18.5366C26.7857 19.1629 27.1668 20.0151 27.172 20.9057C27.1772 21.7963 26.8061 22.6523 26.1403 23.2855C25.4745 23.9187 24.5686 24.2772 23.6218 24.2821V24.2861ZM33.7378 29.4272H37.1688C37.7309 29.4272 38.2699 29.2172 38.6673 28.8433C39.0648 28.4695 39.288 27.9624 39.288 27.4337C39.288 26.905 39.0648 26.398 38.6673 26.0241C38.2699 25.6503 37.7309 25.4403 37.1688 25.4403H33.7378C32.5088 25.4416 31.3305 25.9015 30.4614 26.719C29.5923 27.5365 29.1035 28.6448 29.1021 29.801V29.8867C29.1035 31.0428 29.5923 32.1512 30.4614 32.9687C31.3305 33.7862 32.5088 34.246 33.7378 34.2474H34.6533C34.755 34.2523 34.8508 34.2938 34.921 34.3632C34.9911 34.4327 35.0302 34.5248 35.0302 34.6206C35.0302 34.7164 34.9911 34.8086 34.921 34.878C34.8508 34.9475 34.755 34.989 34.6533 34.9939H31.2213C30.6592 34.9939 30.1202 35.2039 29.7228 35.5778C29.3254 35.9516 29.1021 36.4587 29.1021 36.9874C29.1021 37.5161 29.3254 38.0231 29.7228 38.3969C30.1202 38.7708 30.6592 38.9808 31.2213 38.9808H34.6533C35.8705 38.9635 37.0317 38.4965 37.8859 37.6807C38.7402 36.8649 39.219 35.7657 39.219 34.6206C39.219 33.4755 38.7402 32.3764 37.8859 31.5606C37.0317 30.7448 35.8705 30.2778 34.6533 30.2604H33.7378C33.6325 30.2604 33.5314 30.2211 33.4569 30.151C33.3824 30.0809 33.3405 29.9858 33.3405 29.8867V29.801C33.3405 29.7018 33.3824 29.6068 33.4569 29.5367C33.5314 29.4666 33.6325 29.4272 33.7378 29.4272Z" fill="white"/>
</g>
</svg>
