<svg width="49" height="50" viewBox="0 0 49 50" fill="none" xmlns="http://www.w3.org/2000/svg">
<path id="Vector" d="M15.711 30.7153C15.3357 30.3691 14.8596 30.1345 14.3425 30.0411C13.8254 29.9478 13.2904 29.9997 12.8047 30.1905C12.4739 30.3029 12.1734 30.482 11.9246 30.7152C11.6758 30.9484 11.4847 31.23 11.3648 31.5401C11.1918 31.9202 11.1221 32.3346 11.1619 32.7461C11.2017 33.1576 11.3497 33.5535 11.5928 33.8983C11.8358 34.2431 12.1663 34.526 12.5546 34.7218C12.9429 34.9175 13.3769 35.02 13.8179 35.02C14.2588 35.02 14.6928 34.9175 15.0811 34.7218C15.4694 34.526 15.7999 34.2431 16.0429 33.8983C16.286 33.5535 16.434 33.1576 16.4738 32.7461C16.5136 32.3346 16.4439 31.9202 16.271 31.5401C16.136 31.2371 15.9466 30.9582 15.711 30.7153ZM37.0441 30.7153C36.5285 30.2693 35.8526 30.0216 35.1509 30.0216C34.4492 30.0216 33.7733 30.2693 33.2577 30.7153C33.022 30.9582 32.8326 31.2373 32.6977 31.5403C32.4896 31.9947 32.4317 32.4972 32.5315 32.9828C32.6313 33.4684 32.8842 33.9147 33.2575 34.2642C33.5167 34.4851 33.8144 34.6626 34.1377 34.7891C34.4568 34.921 34.8019 34.9892 35.1507 34.9892C35.4995 34.9892 35.8445 34.921 36.1637 34.7891C36.4867 34.6621 36.7843 34.4846 37.0439 34.2642C37.4172 33.9148 37.6701 33.4684 37.7699 32.9829C37.8697 32.4973 37.8119 31.9949 37.6039 31.5405C37.4691 31.2374 37.2798 30.9583 37.0441 30.7153ZM43.9759 42.2249C45.8637 40.8146 47.3047 38.9479 48.1433 36.8261C48.9819 34.7044 49.1862 32.4083 48.7341 30.1857L44.7342 10.192C44.1607 7.3281 42.5375 4.74203 40.1451 2.88097C37.7528 1.01991 34.7417 0.000848917 31.6326 0H17.3358C14.2267 0.000876601 11.2157 1.01996 8.82337 2.88104C6.43104 4.74212 4.80782 7.32819 4.23438 10.1921L0.234412 30.1858C-0.21763 32.4084 -0.0133377 34.7045 0.825234 36.8262C1.66381 38.948 3.1048 40.8147 4.99267 42.225L1.26574 45.7181C1.01446 45.9494 0.814561 46.225 0.677579 46.5291C0.540598 46.8332 0.46925 47.1597 0.467655 47.4897C0.46606 47.8198 0.53425 48.1469 0.668288 48.4521C0.802325 48.7574 0.999554 49.0347 1.24858 49.2681C1.49761 49.5015 1.79351 49.6863 2.11919 49.8119C2.44487 49.9376 2.79388 50.0015 3.14605 50C3.49823 49.9985 3.84661 49.9316 4.17106 49.8032C4.49551 49.6749 4.78961 49.4875 5.03637 49.252L10.0207 44.5806C11.1033 44.8454 12.2171 44.9815 13.3359 44.9858H35.6326C36.7513 44.9815 37.8651 44.8454 38.9477 44.5807L43.9321 49.252C44.4336 49.7136 45.1094 49.971 45.8124 49.968C46.5154 49.965 47.1886 49.7019 47.6857 49.2361C48.1828 48.7702 48.4635 48.1392 48.4666 47.4804C48.4698 46.8215 48.1953 46.1882 47.7027 45.7181L43.9759 42.2249ZM9.47391 11.1147C9.81869 9.39639 10.7929 7.84491 12.2284 6.7282C13.6638 5.61148 15.4703 4.99967 17.3358 4.99843H31.6326C33.4981 4.99967 35.3046 5.61148 36.7401 6.7282C38.1755 7.84491 39.1498 9.39639 39.4945 11.1147L40.419 15.7355C38.4281 17.8588 35.977 19.5597 33.2293 20.725C30.4815 21.8902 27.5002 22.4929 24.4842 22.4929C21.4683 22.4929 18.487 21.8902 15.7392 20.725C12.9914 19.5597 10.5403 17.8588 8.54944 15.7355L9.47391 11.1147ZM41.7862 37.2783C41.0369 38.127 40.0967 38.81 39.0329 39.2784C37.9691 39.7467 36.8079 39.9889 35.6326 39.9874H13.3359C12.1606 39.987 10.9999 39.744 9.93615 39.2756C8.87244 38.8072 7.93188 38.1249 7.18135 37.2773C6.43082 36.4297 5.88873 35.4375 5.59363 34.3713C5.29854 33.3051 5.25767 32.1911 5.47394 31.1084L7.37009 21.6305C12.1583 25.4153 18.2204 27.4913 24.4842 27.4913C30.7481 27.4913 36.8101 25.4153 41.5984 21.6305L43.4945 31.1084C43.7127 32.1912 43.6727 33.3059 43.3774 34.3726C43.0821 35.4393 42.5387 36.4315 41.7862 37.2783Z" fill="#344128"/>
</svg>
