<svg width="56" height="53" viewBox="0 0 56 53" fill="none" xmlns="http://www.w3.org/2000/svg">
<g id="Group 16">
<path id="Vector" d="M44.6623 0H11.3378C8.33183 0.00316571 5.44998 1.12779 3.32447 3.12713C1.19896 5.12648 0.00336547 7.83727 0 10.6648V42.0112C0.00336547 44.8387 1.19896 47.5495 3.32447 49.5488C5.44998 51.5482 8.33183 52.6728 11.3378 52.676H44.6623C47.6682 52.6728 50.5501 51.5482 52.6756 49.5488C54.8011 47.5495 55.9967 44.8387 56 42.0112V10.6638C55.9964 7.83644 54.8007 5.12591 52.6752 3.12678C50.5497 1.12765 47.668 0.00316521 44.6623 0ZM51.7616 42.0102C51.7599 43.7808 51.0114 45.4785 49.6804 46.7305C48.3494 47.9825 46.5446 48.6866 44.6623 48.6882H11.3378C9.45541 48.6866 7.65064 47.9825 6.31962 46.7305C4.9886 45.4785 4.2401 43.7808 4.23841 42.0102V10.6638C4.2401 8.89316 4.9886 7.19552 6.31962 5.9435C7.65064 4.69149 9.45541 3.98742 11.3378 3.98583H44.6623C46.5446 3.98742 48.3494 4.69149 49.6804 5.9435C51.0114 7.19552 51.7599 8.89316 51.7616 10.6638V42.0102Z" fill="white"/>
<path id="Vector_2" d="M44.2903 13.3263C43.7282 13.3263 43.1892 13.5363 42.7917 13.9101C42.3943 14.284 42.171 14.791 42.171 15.3197V24.1076L38.6034 24.1445C36.5467 24.1749 34.5859 24.9675 33.1469 26.35C31.7079 27.7325 30.907 29.5933 30.9181 31.5281C30.9293 33.4629 31.7516 35.3154 33.2065 36.6831C34.6614 38.0509 36.6312 38.8234 38.6881 38.8328H44.2903C44.8523 38.8328 45.3913 38.6228 45.7888 38.249C46.1862 37.8751 46.4095 37.3681 46.4095 36.8394V15.3197C46.4095 14.791 46.1862 14.284 45.7888 13.9101C45.3913 13.5363 44.8523 13.3263 44.2903 13.3263ZM42.171 34.846H38.6881C37.7515 34.8365 36.8564 34.481 36.1959 33.8564C35.5353 33.2317 35.1622 32.3878 35.1571 31.5068C35.1519 30.6257 35.5151 29.7781 36.1684 29.1466C36.8216 28.5151 37.7125 28.1505 38.6489 28.1313L42.171 28.0954V34.846Z" fill="white"/>
<path id="Vector_3" d="M29.6306 14.336C29.1772 14.0237 28.6104 13.8937 28.055 13.9744C27.4996 14.0552 27.0011 14.3401 26.669 14.7666L20.0444 23.2755L13.4187 14.7666C13.0865 14.3401 12.5878 14.0551 12.0323 13.9745C11.4768 13.8938 10.91 14.024 10.4566 14.3365C10.0031 14.649 9.70023 15.1181 9.61448 15.6406C9.52874 16.1631 9.66718 16.6963 9.99935 17.1228L17.4166 26.6494L9.99935 36.177C9.66718 36.6035 9.52874 37.1367 9.61448 37.6592C9.70023 38.1817 10.0031 38.6508 10.4566 38.9633C10.91 39.2757 11.4768 39.406 12.0323 39.3253C12.5878 39.2446 13.0865 38.9597 13.4187 38.5332L20.0444 30.0253L26.669 38.5352C26.8335 38.7464 27.0406 38.925 27.2785 39.0609C27.5163 39.1968 27.7803 39.2874 28.0554 39.3273C28.3305 39.3672 28.6112 39.3558 28.8816 39.2937C29.1519 39.2316 29.4066 39.12 29.6312 38.9653C29.8557 38.8106 30.0456 38.6158 30.1901 38.392C30.3346 38.1683 30.4308 37.9199 30.4732 37.6612C30.5157 37.4025 30.5036 37.1384 30.4375 36.8841C30.3715 36.6297 30.2528 36.3901 30.0884 36.179L22.6711 26.6514L30.0884 17.1248C30.2532 16.9135 30.3722 16.6737 30.4384 16.4191C30.5047 16.1645 30.5169 15.9001 30.4744 15.6411C30.4318 15.3821 30.3354 15.1335 30.1907 14.9095C30.0459 14.6856 29.8556 14.4907 29.6306 14.336Z" fill="white"/>
</g>
</svg>
